<?xml version="1.0" encoding="UTF-8"?>
<svg xmlns="http://www.w3.org/2000/svg" xmlns:xlink="http://www.w3.org/1999/xlink" xmlns:svgjs="http://svgjs.com/svgjs" version="1.1" width="512" height="512" x="0" y="0" viewBox="0 0 512 512" style="enable-background:new 0 0 512 512" xml:space="preserve" class="">
  <g transform="matrix(1,0,0,-1,0,512)">
    <path d="M425.199 223.957c-13.303-13.303-34.961-13.303-48.205-.06l-86.861 85.086V34.133C290.133 15.309 274.824 0 256 0s-34.133 15.309-34.133 34.133V309l-86.801-85.052c-13.312-13.312-34.961-13.312-48.273 0-13.312 13.312-13.303 34.97 0 48.273.017.017.034.026.043.043l148.361 146.5c5.726 5.658 13.227 8.482 20.727 8.482 7.543 0 15.078-2.859 20.787-8.568L425.199 272.23c6.451-6.443 10.001-15.019 10.001-24.132s-3.55-17.689-10.001-24.141zM401.067 443.733H110.933c-18.825 0-34.133 15.309-34.133 34.133S92.109 512 110.933 512h290.133c18.825 0 34.133-15.309 34.133-34.133s-15.316-34.134-34.132-34.134z" fill="#000000" data-original="#000000" class=""/>
  </g>
</svg>
