<svg id="Layer_1" height="512" viewBox="0 0 32 32" width="512" xmlns="http://www.w3.org/2000/svg" data-name="Layer 1"><path d="m20 29h-14a3 3 0 0 1 -3-3v-14a3 3 0 0 1 3-3h14a3 3 0 0 1 3 3v14a3 3 0 0 1 -3 3zm-14-18a1 1 0 0 0 -1 1v14a1 1 0 0 0 1 1h14a1 1 0 0 0 1-1v-14a1 1 0 0 0 -1-1z"/><path d="m10 8a1 1 0 0 1 -1-1v-1a3 3 0 0 1 3-3h1a1 1 0 0 1 0 2h-1a1 1 0 0 0 -1 1v1a1 1 0 0 1 -1 1z"/><path d="m26 23h-1a1 1 0 0 1 0-2h1a1 1 0 0 0 1-1v-1a1 1 0 0 1 2 0v1a3 3 0 0 1 -3 3z"/><path d="m28 8a1 1 0 0 1 -1-1v-1a1 1 0 0 0 -1-1h-1a1 1 0 0 1 0-2h1a3 3 0 0 1 3 3v1a1 1 0 0 1 -1 1z"/><path d="m28 16a1 1 0 0 1 -1-1v-4a1 1 0 0 1 2 0v4a1 1 0 0 1 -1 1z"/><path d="m21 5h-4a1 1 0 0 1 0-2h4a1 1 0 0 1 0 2z"/><path d="m16 20h-6a1 1 0 0 1 0-2h6a1 1 0 0 1 0 2z"/><path d="m13 23a1 1 0 0 1 -1-1v-6a1 1 0 0 1 2 0v6a1 1 0 0 1 -1 1z"/></svg>