<svg id="Layer_1" height="512" viewBox="0 0 64 64" width="512" xmlns="http://www.w3.org/2000/svg" data-name="Layer 1"><path d="m32 12a20.023 20.023 0 0 1 20 20 2 2 0 0 0 4 0 23.991 23.991 0 0 0 -43-14.645v-3.724a2 2 0 0 0 -4 0v9.269a2 2 0 0 0 2 2h9.263a2 2 0 0 0 0-4h-4.883a20.021 20.021 0 0 1 16.62-8.9z"/><path d="m32 56a24.038 24.038 0 0 0 19-9.355v3.724a2 2 0 0 0 4 0v-9.264a2 2 0 0 0 -2-2h-9.263a2 2 0 0 0 0 4h4.883a19.991 19.991 0 0 1 -36.62-11.105 2 2 0 0 0 -4 0 24.027 24.027 0 0 0 24 24z"/></svg>