<svg fill="none" height="512" viewBox="0 0 24 24" width="512" xmlns="http://www.w3.org/2000/svg"><g clip-rule="evenodd" fill="rgb(0,0,0)" fill-rule="evenodd"><path d="m16.2929 14.2929c.3905-.3905 1.0237-.3905 1.4142 0l1.2929 1.2929 1.2929-1.2929c.3905-.3905 1.0237-.3905 1.4142 0s.3905 1.0237 0 1.4142l-1.2929 1.2929 1.2929 1.2929c.3905.3905.3905 1.0237 0 1.4142s-1.0237.3905-1.4142 0l-1.2929-1.2929-1.2929 1.2929c-.3905.3905-1.0237.3905-1.4142 0s-.3905-1.0237 0-1.4142l1.2929-1.2929-1.2929-1.2929c-.3905-.3905-.3905-1.0237 0-1.4142z"/><path d="m6 5c0-.55228.44772-1 1-1h11c.5523 0 1 .44772 1 1v1c0 .55228-.4477 1-1 1s-1-.44772-1-1h-9c0 .55228-.44772 1-1 1s-1-.44772-1-1z"/><path d="m6 19c0-.5523.44772-1 1-1h4c.5523 0 1 .4477 1 1s-.4477 1-1 1h-4c-.55228 0-1-.4477-1-1z"/><path d="m13.2747 4.03849c.5311.15172.8385.70521.6868 1.23624l-3.99998 13.99997c-.15172.5311-.70521.8386-1.23624.6868-.53104-.1517-.83853-.7052-.68681-1.2362l4.00003-14.00001c.1517-.53103.7052-.83852 1.2362-.6868z"/></g></svg>