<svg fill="none" height="512" viewBox="0 0 24 24" width="512" xmlns="http://www.w3.org/2000/svg"><g clip-rule="evenodd" fill="rgb(0,0,0)" fill-rule="evenodd"><path d="m3 12c0-.5523.44772-1 1-1h8c.5523 0 1 .4477 1 1s-.4477 1-1 1h-8c-.55228 0-1-.4477-1-1z"/><path d="m4 5c.55228 0 1 .44772 1 1v12c0 .5523-.44772 1-1 1s-1-.4477-1-1v-12c0-.55228.44772-1 1-1z"/><path d="m12 5c.5523 0 1 .44772 1 1v12c0 .5523-.4477 1-1 1s-1-.4477-1-1v-12c0-.55228.4477-1 1-1z"/><path d="m19 15c-.5523 0-1 .4477-1 1s.4477 1 1 1 1-.4477 1-1-.4477-1-1-1zm-3 1c0-1.6569 1.3431-3 3-3s3 1.3431 3 3-1.3431 3-3 3-3-1.3431-3-3z"/><path d="m20.7071 9.29289c.3905.39053.3905 1.02371 0 1.41421-.9799.98-1.6455 1.7712-2.0747 2.576-.4161.7801-.6324 1.6162-.6324 2.7169 0 .5523-.4477 1-1 1s-1-.4477-1-1c0-1.3993.2837-2.5632.8676-3.6581.5708-1.0702 1.4052-2.029 2.4253-3.04901.3905-.39052 1.0237-.39052 1.4142 0z"/></g></svg>