<svg fill="none" height="512" viewBox="0 0 24 24" width="512" xmlns="http://www.w3.org/2000/svg"><g clip-rule="evenodd" fill="rgb(0,0,0)" fill-rule="evenodd"><path d="m3 12c0-.5523.44772-1 1-1h8c.5523 0 1 .4477 1 1s-.4477 1-1 1h-8c-.55228 0-1-.4477-1-1z"/><path d="m4 5c.55228 0 1 .44772 1 1v12c0 .5523-.44772 1-1 1s-1-.4477-1-1v-12c0-.55228.44772-1 1-1z"/><path d="m12 5c.5523 0 1 .44772 1 1v12c0 .5523-.4477 1-1 1s-1-.4477-1-1v-12c0-.55228.4477-1 1-1z"/><path d="m16 10c0-.55228.4477-1 1-1h4c.5523 0 1 .44772 1 1 0 .5523-.4477 1-1 1h-3v2c0 .5523-.4477 1-1 1s-1-.4477-1-1z"/><path d="m16.0002 13c0-.5523.4477-1 1-1h1.3c1.9754 0 3.7 1.4739 3.7 3.5s-1.7246 3.5-3.7 3.5c-.6542 0-1.2074-.1357-1.7472-.4056-.494-.247-.6942-.8476-.4472-1.3416s.8477-.6942 1.3416-.4472c.2603.1301.5071.1944.8528.1944 1.0246 0 1.7-.7261 1.7-1.5s-.6754-1.5-1.7-1.5h-1.3c-.5523 0-1-.4477-1-1z"/></g></svg>