<?xml version="1.0" encoding="UTF-8"?>
<!-- Generator: Adobe Illustrator 24.3.0, SVG Export Plug-In . SVG Version: 6.00 Build 0)  -->
<svg xmlns="http://www.w3.org/2000/svg" xmlns:xlink="http://www.w3.org/1999/xlink" version="1.1" id="Capa_1" x="0px" y="0px" viewBox="0 0 512.002 512.002" style="enable-background:new 0 0 512.002 512.002;" xml:space="preserve" width="512" height="512">
<g>
	<path d="M69.449,349.728l51.548-176.736c0.163-0.602,0.364-1.195,0.602-1.776c0.886-2.183,2.216-4.02,3.834-5.472L275.471,15.705   c5.881-5.881,15.416-5.881,21.296,0c5.881,5.881,5.881,15.415,0,21.296l-139.94,139.94l189.527,189.527l139.94-139.94   c5.881-5.881,15.416-5.881,21.296,0c5.881,5.881,5.881,15.415,0,21.296L357.553,397.863c-1.452,1.618-3.29,2.948-5.472,3.834   c-0.581,0.238-1.175,0.439-1.776,0.602l-176.736,51.548l-42.448,42.448c-4.802,4.802-12.223,5.796-18.119,2.427L7.589,438.487   c-8.621-4.926-10.198-16.702-3.177-23.723L69.449,349.728z M169.992,423.518l147.731-43.088L142.866,205.574L99.778,353.304   L169.992,423.518z M144.352,440.471l-61.527-61.527L39.65,422.12l78.307,44.747L144.352,440.471z"/>
</g>















</svg>
