<svg id="Capa_1" enable-background="new 0 0 453.54 453.54" height="512" viewBox="0 0 453.54 453.54" width="512" xmlns="http://www.w3.org/2000/svg"><path d="m448.764 49.322c-9.497-6.85-18.496-14.239-27.733-21.424-9.653-7.511-23.355 5.984-13.584 13.586 3.943 3.068 7.852 6.171 11.766 9.262-72.129 7.341-142.799 26.615-205.707 63.51-66.104 38.768-119.035 95.857-158.873 160.844-26.958 43.974-48.241 92.029-54.551 143.589-1.503 12.28 17.729 12.135 19.213 0 5.99-48.94 27.717-94.398 53.215-135.992 20.389-33.259 44.455-64.112 72.236-91.517 53.323-52.601 120.137-88.069 192.381-106.827 25.422-6.601 51.33-11.058 77.421-13.904-2.351 1.974-4.714 3.936-7.102 5.872-9.627 7.809 4.054 21.317 13.584 13.586 10.145-8.228 19.909-16.833 29.679-25.496 5-4.436 2.767-11.691-1.945-15.089z"/></svg>