<svg clip-rule="evenodd" fill-rule="evenodd" height="512" stroke-linejoin="round" stroke-miterlimit="2" viewBox="0 0 100 100" width="512" xmlns="http://www.w3.org/2000/svg"><g id="Layer2"><path d="m78.125 9.375c-13.074 0-43.176 0-56.25 0-2.486 0-4.871.988-6.629 2.746s-2.746 4.143-2.746 6.629v62.5c0 2.486.988 4.871 2.746 6.629s4.143 2.746 6.629 2.746h35.167c2.257 0 4.438-.814 6.143-2.293 4.466-3.874 16.219-14.069 21.083-18.288 2.053-1.78 3.232-4.364 3.232-7.082v-44.212c0-2.486-.988-4.871-2.746-6.629s-4.143-2.746-6.629-2.746zm3.125 50v-40.625c0-.829-.329-1.624-.915-2.21s-1.381-.915-2.21-.915h-56.25c-.829 0-1.624.329-2.21.915s-.915 1.381-.915 2.21v62.5c0 .829.329 1.624.915 2.21s1.381.915 2.21.915h31.25v-15.625c0-5.178 4.197-9.375 9.375-9.375zm-1.426 6.25h-17.324c-1.726 0-3.125 1.399-3.125 3.125v14.613z"/><path d="m31.25 31.25h37.5c1.725 0 3.125-1.4 3.125-3.125s-1.4-3.125-3.125-3.125h-37.5c-1.725 0-3.125 1.4-3.125 3.125s1.4 3.125 3.125 3.125z"/><path d="m31.25 46.094h37.5c1.725 0 3.125-1.401 3.125-3.125 0-1.725-1.4-3.125-3.125-3.125h-37.5c-1.725 0-3.125 1.4-3.125 3.125 0 1.724 1.4 3.125 3.125 3.125z"/></g></svg>